<?xml version="1.0" encoding="utf-8"?>
<!-- Generator: Adobe Illustrator 27.5.0, SVG Export Plug-In . SVG Version: 6.00 Build 0)  -->
<svg version="1.1" xmlns="http://www.w3.org/2000/svg" xmlns:xlink="http://www.w3.org/1999/xlink" x="0px" y="0px"
	 viewBox="0 0 1122 1122" style="enable-background:new 0 0 1122 1122;" xml:space="preserve">
<g id="Bg">
	<rect style="fill:#B0CDCD;" width="1122" height="1122"/>
</g>
<g id="Shadow">
	<g id="XMLID_64_" style="opacity:0.46;">
	</g>
	<polygon style="opacity:0.6;fill:#666666;" points="191.231,701.172 630.911,498.965 924.769,692.745 916.587,728.755 
		582.301,886.48 	"/>
</g>
<g id="Object">
	<g>
		<g>
			<g>
				<g style="enable-background:new    ;">
					<g>
						<polygon style="fill:#313131;" points="620.961,660.8 626.545,656.588 668.159,786.294 662.575,790.506 						"/>
					</g>
					<g>
						<polygon style="fill:#252626;" points="579.352,531.09 620.961,660.8 662.575,790.506 581.202,733.221 499.829,675.937 
							539.589,603.515 						"/>
					</g>
					<g>
						<polygon style="fill:#3F3224;" points="579.352,531.09 584.937,526.878 626.545,656.588 620.961,660.8 						"/>
					</g>
				</g>
			</g>
			<g>
				<polygon style="fill:#C69E75;" points="518.01,839.211 518.01,839.211 430.823,787.404 				"/>
				<polygon style="fill:#C69E75;" points="240.094,674.075 240.095,674.076 240.095,674.075 				"/>
				<polygon style="fill:#262626;" points="275.456,654.495 269.34,657.852 506.027,798.49 507.585,793.35 275.218,655.28 				"/>
				<polygon style="fill:#7B6348;" points="303.07,466.339 240.094,674.075 240.095,674.075 				"/>
				<polygon style="fill:#333334;" points="372.748,333.59 368.428,331.023 269.34,657.852 275.456,654.495 				"/>
				<polygon style="fill:#F2F2F2;" points="275.456,654.495 275.218,655.28 507.585,793.35 605.108,471.656 372.748,333.59 				"/>
				<polygon style="fill:#4D3C28;" points="601.598,563.501 634.359,455.439 634.359,455.438 				"/>
				<path style="fill:#333334;" d="M336.413,222.27L191.231,701.172l346.802,206.067l145.188-478.898L336.413,222.27z
					 M601.598,563.501l-83.587,275.71l0,0h0l-87.188-51.806L240.095,674.076l0,0l-0.001-0.001l62.976-207.736l53.367-176.042
					L634.36,455.437l0,0.001l0,0.001L601.598,563.501z"/>
				<polygon style="fill:#262626;" points="269.34,657.852 368.428,331.023 356.437,290.297 303.07,466.339 240.095,674.075 
					240.095,674.076 240.095,674.076 				"/>
				<polygon style="fill:#3F3F3F;" points="269.34,657.852 240.095,674.076 430.823,787.404 518.01,839.211 518.011,839.211 
					506.027,798.49 				"/>
				<polygon style="fill:#3F3F3F;" points="372.748,333.59 605.108,471.656 634.36,455.437 356.437,290.297 368.428,331.023 				"/>
				<polygon style="fill:#262626;" points="634.36,455.437 605.108,471.656 507.585,793.35 506.027,798.49 518.011,839.211 
					601.598,563.501 634.359,455.438 				"/>
				<polygon style="fill:#1E1E1E;" points="683.221,428.341 538.033,907.239 582.301,886.48 723.789,419.785 				"/>
				<polygon style="fill:#262626;" points="723.789,419.785 376.246,212.761 336.413,222.27 683.221,428.341 				"/>
			</g>
		</g>
	</g>
</g>
</svg>
